<?xml version="1.0" encoding="utf-8"?>
<!-- Generator: Adobe Illustrator 19.0.0, SVG Export Plug-In . SVG Version: 6.00 Build 0)  -->
<svg version="1.1" xmlns="http://www.w3.org/2000/svg" xmlns:xlink="http://www.w3.org/1999/xlink" x="0px" y="0px"
	 viewBox="0 0 841.9 595.3" style="enable-background:new 0 0 841.9 595.3;" xml:space="preserve">
<style type="text/css">
	.st0{fill:#FFFFFF;}
	.st1{stroke:#FFFFFF;stroke-width:6;stroke-miterlimit:10;}
	.st2{stroke:#FFFFFF;stroke-width:5;stroke-miterlimit:10;}
	.st3{fill:none;stroke:#FFFFFF;stroke-width:5;stroke-miterlimit:10;}
	.st4{fill:#FFFFFF;stroke:#FFFFFF;stroke-width:5;stroke-miterlimit:10;}
</style>
<g id="back">
	
		<image style="display:none;overflow:visible;" width="2970" height="1680" id="drawing" xlink:href="proto_2.png"  transform="matrix(0.3063 0 0 0.3063 -33.97 58.3161)">
	</image>
	<g id="back_1_">
		<path id="XMLID_42_" class="st0" d="M101.2,196.7c-1.7,1.6-3.2,4.8-3.3,7.1l-1.8,71.5c-0.1,2.3-0.7,6.1-1.3,8.3l-6.6,22
			c-0.7,2.2-2.9,5-4.9,6.1l-16.6,9.3c-2,1.1-2.4,3.4-0.7,5.1l9.6,9.8c1.6,1.7,3,5,3,7.3v9.5c0,2.3,1.8,4.8,4,5.6l7.4,2.4
			c2.2,0.7,4.9,3,6,5.1l4.1,8.1c1.1,2.1,0.5,5-1.3,6.5L85.8,391c-1.8,1.5-4,4.5-4.8,6.7l-4.4,11.2c-0.9,2.2-1.4,5.9-1.3,8.2
			l1.5,27.7c0.1,2.3,2.1,4.2,4.5,4.2h0.5c2.3,0,3.9,1.9,3.5,4.2l-2.4,13.1c-0.4,2.3,1,5,3.1,5.9l11.3,5.1c2.1,1,5.7,2.3,7.9,3
			l11.8,3.5c2.2,0.7,3.4,3,2.6,5.2l-10.1,28c-0.8,2.2-3,5.1-4.9,6.5l-0.1,0.1c-1.9,1.4-1.7,3.3,0.4,4.3l5.3,2.4c2.1,1,5,0.2,6.3-1.7
			l13-18.1c1.4-1.9,4.4-3.1,6.6-2.6l1.1,0.2c2.3,0.5,5.5-0.4,7.2-2l6.5-6.1c1.7-1.6,3.1-4.8,3.1-7.2v-3.5c0-2.3,1.6-3.1,3.5-1.8
			l24.2,17.1c1.9,1.4,3.5,4.4,3.5,6.7v25.5c0,2.3,1.7,5.2,3.7,6.3l25.4,13.9c2.1,1.1,3.7,0.1,3.7-2.2v-7.5c0-2.3,1.9-4.7,4.1-5.3
			l19.2-4.9c2.3-0.6,2.7-2.4,1.1-4L234,525c-1.7-1.6-1.2-3.5,1.1-4.1l10.2-2.8c2.3-0.6,5.4-2.5,7.1-4.2l3.7-3.9
			c1.6-1.7,1.9-4.7,0.7-6.7l-0.5-0.8c-1.2-2-0.7-4.7,1.3-6l4.9-3.3c1.9-1.3,5-1.2,6.9,0.3l2.2,1.7c1.8,1.5,4,0.9,4.9-1.3l2-5.1
			c0.9-2.2,3.4-3.3,5.6-2.5l3,1.1c2.2,0.8,4-0.5,4-2.8v-1.4c0-2.3,1.7-5.1,3.8-6.2l9.4-4.8c2.1-1.1,4.4-3.7,5.1-6l4.4-13.3
			c0.7-2.2,3-5,5-6.1l1.6-0.9c2-1.1,2.2-3.2,0.3-4.6l-12.5-9.1c-1.4-2-0.8-4.8,1.3-6.1l3-5c1.2-2,4.1-3.3,6.4-2.9l2.8,0.5
			c2.5-2,6.2-0.6,6.9,2.5l2.8,14.4c0.4,2.3,2.7,4.7,4.9,5.3l42.8,11.7c2.3,0.6,3.4,2.9,2.6,5.1l-3.1,8.4c-0.8,2.2,0.4,3.4,2.6,2.7
			l23.9-7.8c2.2-0.7,5-3,6.1-5l1.9-3.5c1.1-2.1,3.4-5.1,5-6.8l10-10.3c1.6-1.7,3.7-1.3,4.7,0.9l3.7,8.5c0.9,2.1,3,5.3,4.6,7l6.2,6.8
			c1.6,1.7,4.7,2.5,6.9,1.7l30-10.2c2.2-0.8,5.5-0.2,7.4,1.3l20.3,16.1c1.8,1.5,3.9,0.8,4.5-1.4l9.6-33.2c0.7-2.2,2.8-3.1,4.8-1.8
			l8.8,5.5c2,1.2,3.6,4.2,3.6,6.5v8.5c0,2.3,1.8,3.5,3.9,2.6l47.2-20c2.2-0.9,4.7-3.4,5.6-5.5l1.5-3.5c0.9-2.1,3.6-3.4,5.8-2.8
			l33.8,9c2.3,0.6,5.2-0.5,6.6-2.4l9.1-12.9c1.3-1.9,4.1-2.5,6.1-1.4l7.6,4.4c2,1.2,5.4,3,7.4,4.2l24.5,13.5c2,1.1,4.9,0.5,6.3-1.3
			l7.8-10.2c1.4-1.9,4.5-3.8,6.7-4.3l13.7-3.2c2.3-0.5,4.7-2.8,5.3-5l11.6-39.5c0.7-2.2,1.2-6,1.2-8.3v-0.8c0-2.3,1.4-5.6,3-7.3
			l31-30.9c1.7-1.7,3-4.9,3-7.3V314c0-2.3-1.3-5.7-2.8-7.4l-16.3-18.4c-1.6-1.7-3.2-5.1-3.6-7.4l-0.5-3.1c-0.4-2.3-2-5.6-3.5-7.4
			l-25.5-30c-1.5-1.8-4.7-3.4-7-3.5l-19.5-1.4c-2.3-0.2-4.8,1.5-5.4,3.8l-3.7,12.8c-0.6,2.2-3.1,4.2-5.4,4.3l-10.5,0.6
			c-2.3,0.1-3.1-1.3-1.8-3.2l4-5.6c1.4-1.9,2.7-5.4,3-7.7l3-24.6c0.3-2.3-0.7-5.7-2.2-7.5l-14.5-17.4c-1.5-1.8-2.8-5.2-3-7.5
			l-1.5-27.9c-0.1-2.3-1.7-5.4-3.6-6.8l-7.3-5.6c-1.9-1.4-5.3-2.6-7.6-2.6h-12.5c-2.3,0-5.9,1-7.8,2.3l-9.8,6.2
			c-2,1.3-5.2,1.3-7.2,0l-9.8-6.2c-2-1.3-5.2-3.4-7.1-4.7l-21-14.6c-1.9-1.3-4.5-0.8-5.7,1.2l-3.5,5.8c-1.2,2-4.1,3.4-6.4,3.1
			l-21.6-2.9c-2.3-0.3-6.1-0.7-8.5-0.8l-11.5-0.6c-2.3-0.1-5.1,1.5-6.1,3.6l-3.3,6.8c-1,2.1-3.6,2.9-5.6,1.9L473.8,123
			c-2.1-1.1-5.5-1.2-7.7-0.3l-25.2,10.7c-2.2,0.9-3.8,3.6-3.8,5.9l0.7,20.5c0.1,2.3-1.4,3.2-3.3,1.8l-42-29.2
			c-1.9-1.3-4.9-1.2-6.7,0.4l-17.6,15.6c-1.8,1.5-3.5,4.7-4,7l-1.4,7.3c-0.4,2.3-1.5,6-2.3,8.1l-4.9,12.9c-0.8,2.2-3.2,4.8-5.3,5.9
			l-9.4,4.7c-2.1,1-4.7,3.6-5.8,5.7l-9,17c-1.1,2.1-3.3,2.3-4.8,0.6L306.3,201c-1.6-1.7-1.4-4.4,0.5-5.8l13.2-10.5
			c1.8-1.5,1.8-3.8-0.1-5.2l-13.5-10c-1.9-1.4-3-4.4-2.4-6.6l1.9-7.6c0.6-2.3,0.4-5.9-0.3-8.2l-7.3-22.1c-0.7-2.2-3.2-4.3-5.5-4.7
			l-22.6-3.6c-2.3-0.4-5.1,1-6.1,3.1l-2.2,4.4c-1,2.1-3.1,2.3-4.7,0.6l-20-23.5c-1.5-1.8-3.6-4.9-4.7-7l-7-13.5
			c-1.1-2.1-3.6-4.8-5.5-6.1l-3.7-2.4c-2-1.3-4.5-0.6-5.6,1.4l-6.2,11.5c-1.1,2.1-1.9,5.7-1.7,8l1,14.5c0.2,2.3-1.6,4.5-3.9,4.8
			l-14.4,1.9c-2.3,0.3-6.1,0.7-8.5,0.8l-6.8,0.4c-2.3,0.2-5.3,1.9-6.6,3.8l-11.7,17.4c-1.3,1.9-3.7,4.9-5.4,6.5L135,155
			c-1.7,1.7-3.8,4.8-4.7,6.9l-4.5,10.2c-0.9,2.1-3.1,5.2-4.9,6.7L101.2,196.7z"/>
	</g>
	<polygon id="XMLID_16_" class="st0" points="63,165 71,182 106,165 106,151.2 137.6,131 121,109 100.3,109 	"/>
	<polygon id="XMLID_17_" class="st0" points="30,386 19,393.7 30,403.5 30,422.1 46,432.7 71,403.5 50,403.5 	"/>
	<polygon id="XMLID_15_" class="st0" points="295,105.3 317,129.3 317,150.8 362,136.3 350,123.3 347,105.3 356,95.3 306,95.3 	"/>
	<polygon id="XMLID_19_" class="st0" points="401,90 401,99 411,99 420.9,117.8 485,95 492,83 438,83 	"/>
	<polygon id="XMLID_18_" class="st0" points="614,90 625,90 636,83 642,86.5 649,70 664,100.4 670,109 620,123 614,109 621,100.4 	
		"/>
	<polygon id="XMLID_21_" class="st0" points="703,158 726,158 731,171 731,187.6 746,197.8 746,217 751,227 728.7,231 703,211.5 
		703,187.6 692,172 	"/>
	<polygon id="XMLID_20_" class="st0" points="792,386 759,422.1 729,439 692,444 692,455 704,463 712,454 729,463 751,470.4 
		785.6,449 785.6,429 800,412.8 796,403.5 800,393.7 	"/>
	<polygon id="XMLID_1_" class="st0" points="328.5,479.1 350,470.4 366,479.1 413,474.7 413,504 370.8,504 347,499 334,492 	"/>
</g>
<g id="pickle_1_">
	<path id="pickle" class="st1" d="M142.5,225c2.3-13.3,8.9-84.7,76.6-84.5c21.3,0,33.8,17.7,38.9,35.3c3.8,12.8,5.3,35.3-7.3,65.3
		c-16.6,39.2-12.6,56.4-13.2,63c-6.1,66.3,61.2,97,30.6,153c-14.3,26.2-54.6,22.9-64.3,20.4C134,459,119.1,358.6,142.5,225z"/>
	<path id="lunp" class="st1" d="M231,315.6c0,0,11-7.6,13.5,3.9s0,14.3-10,13.5"/>
	<path id="lump" class="st1" d="M271,429c0,0,8.8,0.5,9,12.5c0.1,5.5-5,7.5-14,7.5"/>
	<path id="lump_1_" class="st2" d="M178,372c0,0,7-6,12,0s0,14,0,14"/>
	<path id="lump_2_" class="st2" d="M192.2,265.5c0,0,13.8-6.5,19.3,9.5s-9.6,20-9.6,20"/>
	<path id="lump_3_" class="st2" d="M166,211.5c0,0,18.3-1.6,14.8-15.1c-3-11.5-14.8-8.4-14.8-8.4"/>
	<path id="backshine" class="st3" d="M141.5,317c0,0-7.5,147.4,82,153.4"/>
	<path id="shine" class="st4" d="M195.8,154.9c62.3-21.9,63.1,59.4,38.8,89.6C234.5,244.5,250.3,164.5,195.8,154.9z"/>
	<path id="lump_6_" class="st2" d="M145,251c0,0-11.4-2.5-12.9,8s12.9,14.5,12.9,14.5"/>
	<path id="lump_5_" class="st2" d="M226.5,410.2c0,0,16,3,16,12S230,432.7,230,432.7"/>
	<path id="lump_4_" class="st1" d="M145,403.5c0,0-10.3,2.5-6.5,12c3.8,9.5,11,5.9,11,5.9"/>
</g>
<g id="front">
	<g id="XMLID_34_">
		<path id="XMLID_35_" class="st2" d="M456.7,215.1c-2.2,1.4-4.2,2.2-5.8,2.6c-1.9,0.4-3.9,0.4-6-0.2c-2.1-0.5-3.6-1.2-4.6-2
			c-0.9-0.8-1.8-2.1-2.5-3.9c-1-2.5-1.6-3.9-1.7-4.2c-4.2-5.1-9.4-7-15.9-5.7c-0.7,0.1-1.5,0.3-2.3,0.5c-6.7,2-10.7,6.2-12,12.6
			c-1.3,6.4-0.5,15.6,2.5,27.4c1,4.1,2.9,7.8,5.5,11.3c3.5,4.8,10.3,6.2,20.4,4.2l5.7-1.7c2.3-0.8,3.8-1.9,4.6-3.4
			c0.7-1.5,1-3.1,0.9-4.6c0-1.4-0.7-3.4-2-5.9c-0.7-1.3-2-1.8-3.9-1.4c-1.8,0.3-4.1,1.4-7,3.2c-2,1.2-3.8,2-5.3,2.3
			c-3.2,0.6-5.6-0.8-7.1-4.4c-0.9-2.2-1.5-4.1-1.8-5.6c-0.4-2-0.2-3.4,0.5-4.1c1.2-1.3,3-2.4,5.3-3.2c2.7-0.9,4.7-1.6,6-2.1
			c0.7-0.3,1.5-0.5,2.4-0.6c2.9-0.6,6.8-0.7,11.7-0.4c6.4,0.4,10.6,2.4,12.6,6c1.2,2.2,2.1,4.5,2.6,7c0.3,1.5,0.4,2.9,0.4,4.4
			c-0.1,7-1,12.8-2.8,17.1c-1.8,4.4-5.5,7.6-11.3,9.7c-2.8,1-7.9,2.2-15.3,3.4c-6.8,1.1-11.7,1.2-14.7,0.2c-4.2-1.4-7.3-2.6-9.3-3.8
			c-2.8-1.6-5.3-3.8-7.5-6.7c-3.1-3.8-5.7-11.3-7.9-22.6c-1-5-1.8-11.1-2.6-18.2c-0.8-7.8-0.1-13.9,2.2-18.3
			c4.9-9.1,11.9-15.3,21.2-18.5c2.8-1,7-1.8,12.6-2.6c6.8-0.9,12.2-0.9,16.2,0.1c4.6,1.1,8.6,3.8,12.1,7.9c3.3,3.9,5.5,8.3,6.4,13.2
			C460.2,209.8,459.4,213.5,456.7,215.1z"/>
		<path id="XMLID_37_" class="st2" d="M517.8,195c-1.2,0.4-3.7,0.7-7.5,0.8c-3.4,0.2-6.6,0.2-9.4,0.3c-2.8,0-5.7,0.6-8.6,1.8
			c-2.6,1-4.3,2.7-5.1,4.9c-0.3,0.8-0.7,3.2-1.1,7.1c0,1.4,0.3,3.9,0.7,7.7c0.8,3.9,2.8,5.9,6,6.2c2,0.2,4.7,0.1,8.3-0.1
			c3.6-0.2,6.5-0.3,8.7-0.2l6.4,0.2c2,0.1,3.8,0.6,5.4,1.7c1.8,1.2,2.8,2.7,2.8,4.6c0,0.8-0.1,2.2-0.3,4c-0.2,0.7-0.8,1.6-1.6,2.5
			c-2.2,1.5-5.4,2.1-9.6,1.8c-4.6-0.4-8-0.6-10.2-0.6c-3.2-0.1-5.2-0.2-6-0.3c-0.9-0.1-1.7-0.1-2.4-0.1c-0.7,0-1.3,0.1-1.9,0.2
			c-1.7,0-2.9,1.4-3.4,4.1c-0.5,2.6-0.2,4.4,1,5.4c1.6,1.3,3.1,2,4.6,2.2c5.5,0.8,10.3,0.9,14.6,0.4c7.9-0.9,12.5,0.5,13.9,4.2
			c0.3,0.8,0.4,1.6,0.4,2.5c0.2,5.5-3.3,8.4-10.2,8.6c-0.8,0-3.1-0.1-6.9-0.4c-10.3-0.6-16.6-1-18.8-1.3c-9.6-1.4-14.6-7.1-15.1-17
			s-1-18.5-1.8-25.8c-0.3-3.1-0.5-5.8-0.6-8.2c-0.2-6.4,0.3-12.8,1.4-19.4c1.4-8.9,8.2-14.4,20.3-16.6c3.9-0.7,6.8-1.1,8.7-1
			c6.2,0.1,11.8,0.8,16.7,2.3c1.8,0.7,3.2,2.2,4.4,4.4c1.2,2.2,1.7,4.3,1.4,6.2c-0.1,1.2-0.2,1.9-0.3,2.1
			C521.9,192.6,520.1,194.2,517.8,195z"/>
		<path id="XMLID_39_" class="st2" d="M605.9,206.8c-4,0.9-8.7,0.8-14.2-0.3c-1.8-0.4-3.7-0.8-5.8-1.4c-1.5,18.8-2.8,33-4,42.6
			c-0.9,7.4-1.5,11.7-1.7,12.8c-1.5,5.9-3.8,9.1-7.1,9.7c-2.2,0.2-4.3,0.1-6.4-0.3c-2.3-0.4-4.3-1.4-6-2.9c-1.8-1.8-2.6-3.8-2.4-6
			c0.4-3.4,1.1-7.6,2-12.5c1.5-7.7,2.8-14.2,3.9-19.5c1.4-6.9,2.4-12.1,2.9-15.8l1.5-11c-5.9-0.5-10.3-1.1-13.1-1.9
			c-2-0.5-3.7-1.1-5.2-1.9c-2.2-1.7-3.6-3.2-4.3-4.4c-1.2-1.8-1.7-3.7-1.3-5.5c0.4-2.1,1.6-4,3.5-5.8c2-1.8,4.5-2.6,7.6-2.4
			c9.7,0.5,18.7,1.6,27.1,3.1c2.7,0.5,8,1.5,15.9,3c4.9,0.9,8.4,2.1,10.5,3.6c4.2,3,5.9,6.9,5,11.5
			C613.8,203.9,611,205.6,605.9,206.8z"/>
	</g>
	<g id="XMLID_2_">
		<path id="XMLID_5_" class="st2" d="M341.1,329.2c-4.4,6.1-10.4,9-18,8.6c-1.5-0.1-5.1-0.6-10.6-1.5c-2.5-0.4-5-1-7.6-1.6
			c-4.6-1.2-9.2-2.8-13.8-4.9c-3,13.2-4.5,21.4-4.6,24.4c-0.1,2.6-0.3,5-0.7,7.3c-0.5,2.7-1.2,4.7-2.1,6.2c-0.9,1.9-2.6,3.1-5,3.7
			c-2.4,0.6-4.6,0.4-6.4-0.5c-3.8-1.9-5-6.9-3.6-15.1c0.7-4.1,1.3-7.2,1.7-9.2c1-6.3,2.2-12.3,3.6-18.2l4.7-17.9
			c1.1-4.1,2.8-8.2,5.1-12.3c3.9-7,10.7-10.4,20.3-10.4c3.8,0,9.8,1.1,18.1,3.3c7.9,2.1,13.9,5.2,17.9,9.3c3.1,3.2,5.1,6.2,6,9
			c1.1,3.3,1,6.9-0.3,10.8C344.9,323.1,343.2,326.1,341.1,329.2z M321.2,315.6c0.4-1.5,0.3-3.1-0.4-4.9c-1.4-4.1-4.4-6.8-9-8.1
			c-1.3-0.4-2.5-0.6-3.6-0.7c-6.8-0.7-10.9,2.3-12.3,8.8c-1,4.3,2,7.5,8.8,9.6c3.7,1.1,6.2,1.6,7.4,1.4l1.9-0.3
			c0.5-0.2,0.9-0.3,1.1-0.4C318.5,319.8,320.5,318.1,321.2,315.6z"/>
		<path id="XMLID_9_" class="st2" d="M398,314.8c0.2,1.4,0.1,2.8-0.1,4.1c-0.3,1.6-0.9,3-1.8,4.3c-1.8,2.5-3.7,4.1-5.6,4.8
			c-1.3,0.4-3,0.5-5,0.1c-1.1-0.2-2.4-0.5-3.8-0.9c-0.3,3.4-0.8,6.9-1.4,10.6c-0.5,3-1.2,8.1-1.9,15.5c-0.7,6.8-1.4,11.9-2.1,15.3
			c-0.3,1.5-0.5,2.7-0.6,3.5c-0.3,2-0.1,2.9,0.5,2.8c7.8,0.4,11.9,3,12.2,7.9c0,0.8,0,1.6-0.1,2.3c-0.6,3.5-3,5.9-7.2,7.1
			c-3,0.9-6.6,1.2-10.8,0.7c-6.3-0.6-11.1-1.6-14.1-2.8c-4.1-1.7-7-3.5-8.7-5.4c-2.3-2.5-3-5.7-2-9.6c1.3-5.2,4.4-7.4,9.2-6.6
			c0.9,0.2,1.8,0.4,2.7,0.8c0.1,0,0.9,0.3,2.3,0.9c0.7-2.7,1.4-6.6,2.1-11.9c0.8-5.9,1.4-9.9,1.8-12c0.6-2.8,1.2-6.4,1.7-10.9
			c0.6-4.9,1.1-8.6,1.6-11c-5.7-1.7-8.9-2.7-9.5-3c-1.2-0.6-2.1-1.7-2.9-3.3c-0.9-1.9-0.9-5.1-0.1-9.5c0.8-4.3,5.4-6.5,13.7-6.5
			c3.8,0,7.4,0.3,10.6,0.9c3.8,0.7,7.3,1.7,10.3,3.2C394.7,308.8,397.6,311.7,398,314.8z"/>
		<path id="XMLID_11_" class="st2" d="M445.7,331.7c-10.9-1-18.7,3.4-23.4,13.3c-1.1,2.4-1.8,5.1-2.1,8.3c-0.4,4,0,8.6,1.2,13.8
			c1.7,7.9,6.9,12.2,15.5,13c1.1,0.1,2.8,0.2,5.1,0.2c2.3,0,4,0,5.1,0.2c7.4,0.7,11.9,3.1,13.5,7.4c0.4,1.1,0.6,2.3,0.5,3.6
			c-0.3,3.5-3.6,6.4-9.9,8.5c-6.7,1.1-11.4,1.5-14.1,1.3c-6.5-0.4-13.2-2.4-20-6.1c-9.4-5-14.3-16.1-14.5-33.5c0-3.5,0.1-7,0.4-10.4
			c0.4-4.4,1.1-8.8,2.1-13.3c1.8-7.7,4.4-13.2,7.8-16.5c4.1-4,8.3-6.7,12.6-8.2c3.5-1.2,8.6-1.9,15.1-2.1c3.2-0.1,6.1-0.1,8.6,0.2
			c3.7,0.3,6.8,1,9.2,2.1c6.6,2.1,9.9,6.6,9.9,13.7c0,5.5-2.8,8.1-8.2,7.6c-1.4-0.1-2.9-0.4-4.5-1
			C451.8,332.7,448.6,332,445.7,331.7z"/>
		<path id="XMLID_25_" class="st2" d="M535.1,342.2c-3,2.4-7.6,5.5-14,9.5c-6.3,4-11,7.1-13.9,9.4c2.2,1.3,5.8,3.8,10.8,7.6
			c4.6,3.5,8.3,5.9,11,7.3c4.3,2.3,8.1,5,11.3,8l1.5,1.4c2.3,2.3,3.5,4.2,3.5,6c0.1,4.4-2.1,7.4-6.4,8.8c-0.4,0.1-0.8,0.2-1.3,0.2
			c-2,0-5-0.7-8.9-2.3c-4.7-1.9-9.8-5.2-15.4-9.9c-6.9-5.7-12.6-11.4-17.3-17.1c0,1.2,0,2.6,0.1,4.2c0.3,3,0.5,4.9,0.7,5.8
			c1,5,1.6,8.9,1.8,11.5c0.5,7.2-1.9,11-7.2,11.4c-3.8,0.3-6.4-0.6-7.6-2.6c-1.5-2.4-2.2-3.8-2.3-4.4c-0.3-2.5-0.6-4.3-0.7-5.5
			c-1-7.6-1.6-12.1-1.7-13.5l-2.1-20c-0.8-7.4-1.1-14.5-0.9-21.2c0.2-6.4,0.3-10,0.3-10.7c0.2-3.1,1-5.7,2.4-7.9
			c1.7-2.7,3.9-4.1,6.7-4.1c0.6,0,1.4,0.1,2.3,0.3c3.1,0.7,4.9,2.2,5.5,4.6c0.7,2.8,1,8.6,1,17.4c0,7.5,0.9,11.2,2.8,11.2
			c0.5,0,1-0.2,1.5-0.6l0.4-0.3c3.4-2.7,5.3-4.3,5.8-4.8c3.3-3.2,5.1-5,5.5-5.4l1.3-1.4c5.2-5.3,8.9-9,11.2-10.9
			c5.3-4.4,9.8-6.7,13.3-6.7c5.3-0.1,8.1,2.8,8.6,8.7C545.2,331.6,542,336.8,535.1,342.2z"/>
		<path id="XMLID_27_" class="st2" d="M570.8,314c1.2,1.5,2.2,3.6,3,6.1c0.8,2.5,1.1,4.8,1.1,6.8c0,5.7-0.1,9.7-0.1,11.9
			c-0.3,5.6-0.2,10.6,0.2,15c0.3,3.3,0.5,5.6,0.7,7.1c0.8,9.6,2.2,15,4.2,16.2c2.8,1.8,6.5,2.3,11.2,1.7c2.9-0.8,5.1-1.4,6.6-1.8
			c3.2-0.4,6.2-0.9,8.9-1.5c3.2-0.7,6.1-0.8,8.5-0.2c3.3,0.7,5.1,2.5,5.5,5.4c0.8,5.9-0.3,9.7-3.2,11.5c-1,0.6-3.6,1.4-7.8,2.5
			c-6.8,1.7-12.9,2.9-18.2,3.6c-2.3,0.3-4.8,0.4-7.6,0.2c-6.4-0.4-10.9-1.3-13.6-2.7c-1.6-0.9-3.2-2.4-4.7-4.6
			c-1.4-2.1-2.3-4.1-2.7-6c-0.7-2.9-1.2-4.9-1.4-6.1c-1.4-5.9-2.3-9.9-2.8-12.2c-1.6-6.7-2.8-12.3-3.4-16.5
			c-1.2-7.7-1.9-12.3-2.2-14.1c-0.6-3.9-1.1-6.7-1.4-8.3c-1.1-6.8-0.5-11.3,1.9-13.5c1-1.2,2.5-2,4.3-2.4c0.7-0.3,1.2-0.4,1.4-0.5
			C564.4,310.1,568.3,310.8,570.8,314z"/>
		<path id="XMLID_29_" class="st2" d="M666.3,312c-1.1,0.7-3.4,1.5-7.1,2.5c-3.3,0.9-6.3,1.7-9.1,2.4c-2.7,0.7-5.4,1.9-8,3.7
			c-2.3,1.6-3.6,3.6-3.9,5.9c-0.1,0.9,0,3.3,0.6,7.2c0.3,1.3,1.1,3.8,2.4,7.4c1.7,3.6,4.1,5.1,7.3,4.7c2-0.3,4.7-0.9,8-2
			c3.5-1,6.3-1.8,8.4-2.2l6.3-1.3c1.9-0.4,3.8-0.2,5.6,0.4c2.1,0.8,3.3,2,3.8,3.8c0.2,0.8,0.4,2.1,0.6,3.9c-0.1,0.8-0.4,1.7-1,2.8
			c-1.8,2-4.8,3.3-8.9,3.9c-4.5,0.7-7.9,1.2-10.1,1.7c-3.2,0.6-5.1,1-5.9,1.1c-0.9,0.1-1.7,0.3-2.4,0.4c-0.7,0.2-1.3,0.4-1.8,0.6
			c-1.7,0.4-2.5,2-2.4,4.8c0.1,2.6,0.8,4.3,2.2,5c1.8,0.9,3.5,1.3,4.9,1.1c5.5-0.5,10.3-1.5,14.3-2.9c7.5-2.6,12.3-2.3,14.5,1
			c0.4,0.7,0.8,1.5,1,2.3c1.4,5.3-1.3,8.9-8,10.6c-0.8,0.2-3.1,0.6-6.8,1.2c-10.2,1.8-16.4,2.8-18.6,3c-9.7,0.8-15.8-3.6-18.5-13.2
			c-2.7-9.6-5.2-17.8-7.6-24.8c-1-3-1.8-5.6-2.4-7.8c-1.6-6.2-2.6-12.6-3-19.2c-0.6-9,4.8-15.9,16.1-20.7c3.6-1.6,6.4-2.6,8.2-3
			c6-1.3,11.6-1.8,16.8-1.5c1.9,0.3,3.7,1.4,5.3,3.3c1.7,1.9,2.6,3.8,2.8,5.7c0.1,1.2,0.2,1.9,0.2,2.1
			C669.8,308.8,668.4,310.8,666.3,312z"/>
		<path id="XMLID_31_" class="st2" d="M762.4,324.3c0.3,2.4-0.3,6.2-1.7,11.4c-1.9,6.7-6.2,12.9-13,18.4c-2,1.7-4.4,3.1-7.1,4.4
			c-7.3,3.4-13.6,5.1-18.8,5.1c-7.2,0-16.8-10.6-28.9-32c-4.8-8.3-7.9-14.5-9.4-18.6c-2.7-7.2-4-12.2-3.9-15.2c0.2-4.7,2.9-9.1,8-13
			c4-3.1,7.9-5.4,11.7-7.1c1.9-0.8,3.9-1.5,5.9-2c5.3-1.3,10.4-1.8,15.1-1.6c4.7,0.2,8.8,1.3,12.3,3.1c2.6,1.3,6.1,4,10.3,7.9
			c0.3,0.3,0.6,0.5,0.9,0.7c5.7,5.5,10.2,12,13.5,19.6C760,311.3,761.7,317.6,762.4,324.3z M707.3,299.3c-1.8,0.8-3.1,1.7-4.1,2.8
			c-1.9,2.1-1.7,6.7,0.6,13.8c1.6,4.7,3.6,9.3,6,13.7c2.7,4.9,4.7,8.3,6.3,10.2c1.5,1.9,3.7,3,6.5,3.2c2.4,0.2,4.9-0.3,7.4-1.4
			c1.8-0.8,3.6-1.9,5.4-3.4c3.8-3.2,6-6.9,6.6-11c0.5-3.5-0.1-7.8-1.9-12.9c-1.8-5.1-5.5-9.4-11-12.9c-5.6-3.5-11-4.7-16.2-3.7
			C710.7,298.1,708.9,298.6,707.3,299.3z"/>
	</g>
</g>
</svg>
